<svg width="17" height="17" viewBox="0 0 17 17" fill="none" xmlns="http://www.w3.org/2000/svg">
<path d="M14.6923 1.57692V13.1154C14.6923 13.2684 14.6315 13.4151 14.5233 13.5233C14.4151 13.6315 14.2684 13.6923 14.1154 13.6923H4.30769C4.00167 13.6923 3.70819 13.8139 3.4918 14.0303C3.27541 14.2466 3.15385 14.5401 3.15385 14.8462H12.9615C13.1145 14.8462 13.2613 14.9069 13.3695 15.0151C13.4777 15.1233 13.5385 15.2701 13.5385 15.4231C13.5385 15.5761 13.4777 15.7228 13.3695 15.831C13.2613 15.9392 13.1145 16 12.9615 16H2.57692C2.42391 16 2.27717 15.9392 2.16898 15.831C2.06078 15.7228 2 15.5761 2 15.4231V3.30769C2 2.69565 2.24313 2.10868 2.67591 1.67591C3.10868 1.24313 3.69565 1 4.30769 1H14.1154C14.2684 1 14.4151 1.06078 14.5233 1.16898C14.6315 1.27717 14.6923 1.42391 14.6923 1.57692Z" fill="#55B6FF"/>
</svg>
