<svg width="17" height="17" viewBox="0 0 17 17" fill="none" xmlns="http://www.w3.org/2000/svg">
<path d="M1 2.74475C1.00137 2.54778 1.08018 2.35926 1.21938 2.21991C1.35859 2.08056 1.54704 2.00157 1.744 2H15.256C15.667 2 16 2.33375 16 2.74475V14.7552C15.9986 14.9522 15.9198 15.1407 15.7806 15.2801C15.6414 15.4194 15.453 15.4984 15.256 15.5H1.744C1.54661 15.4998 1.35737 15.4212 1.21787 15.2816C1.07836 15.142 1 14.9526 1 14.7552V2.74475ZM7.4665 6.06125C7.42136 6.03113 7.3689 6.01383 7.3147 6.01117C7.26051 6.00851 7.2066 6.0206 7.15873 6.04615C7.11086 6.0717 7.07082 6.10975 7.04287 6.15626C7.01492 6.20277 7.0001 6.25599 7 6.31025V11.1898C7.0001 11.244 7.01492 11.2972 7.04287 11.3437C7.07082 11.3902 7.11086 11.4283 7.15873 11.4539C7.2066 11.4794 7.26051 11.4915 7.3147 11.4888C7.3689 11.4862 7.42136 11.4689 7.4665 11.4388L11.1258 8.99975C11.1667 8.97225 11.2003 8.93508 11.2236 8.89152C11.2468 8.84797 11.2589 8.79936 11.2589 8.75C11.2589 8.70064 11.2468 8.65203 11.2236 8.60848C11.2003 8.56492 11.1667 8.52775 11.1258 8.50025L7.4665 6.06125Z" fill="#8729FF"/>
</svg>
