<svg width="17" height="17" viewBox="0 0 17 17" fill="none" xmlns="http://www.w3.org/2000/svg">
<g clip-path="url(#clip0_683_49)">
<mask id="mask0_683_49" style="mask-type:luminance" maskUnits="userSpaceOnUse" x="-1" y="1" width="19" height="17">
<path d="M14.8158 5.73682H2.18421C1.53019 5.73682 1 6.26701 1 6.92103V14.8158C1 15.4698 1.53019 16 2.18421 16H14.8158C15.4698 16 16 15.4698 16 14.8158V6.92103C16 6.26701 15.4698 5.73682 14.8158 5.73682Z" fill="white" stroke="white" stroke-width="4" stroke-linejoin="round"/>
<path d="M6.52633 2.57895H10.4737V1H6.52633V2.57895ZM10.8684 2.97368V5.73684H12.4474V2.97368H10.8684ZM6.13159 5.73684V2.97368H4.55264V5.73684H6.13159ZM10.4737 2.57895C10.5784 2.57895 10.6788 2.62054 10.7528 2.69456C10.8268 2.76859 10.8684 2.86899 10.8684 2.97368H12.4474C12.4474 2.45023 12.2394 1.94822 11.8693 1.57808C11.4992 1.20794 10.9971 1 10.4737 1V2.57895ZM6.52633 1C6.00287 1 5.50086 1.20794 5.13072 1.57808C4.76058 1.94822 4.55264 2.45023 4.55264 2.97368H6.13159C6.13159 2.86899 6.17318 2.76859 6.24721 2.69456C6.32123 2.62054 6.42164 2.57895 6.52633 2.57895V1Z" fill="white"/>
<path d="M6.13159 10.8684H10.8684M8.50001 8.5V13.2368" stroke="black" stroke-width="2" stroke-linecap="round" stroke-linejoin="round"/>
</mask>
<g mask="url(#mask0_683_49)">
<path d="M-0.973694 -0.578979H17.9737V18.3684H-0.973694V-0.578979Z" fill="#DA0000"/>
</g>
</g>
<defs>
<clipPath id="clip0_683_49">
<rect width="17" height="17" fill="white"/>
</clipPath>
</defs>
</svg>
