<svg width="17" height="17" viewBox="0 0 17 17" fill="none" xmlns="http://www.w3.org/2000/svg">
<path d="M9.0045 10.6752V15.25C9.0045 15.4489 8.92549 15.6397 8.78484 15.7803C8.6442 15.921 8.45344 16 8.25454 16C8.05563 16 7.86488 15.921 7.72423 15.7803C7.58359 15.6397 7.50457 15.4489 7.50457 15.25V10.6752C6.66027 10.8487 5.78198 10.7261 5.01752 10.3279C4.25307 9.92968 3.64913 9.28028 3.30737 8.48899C2.9656 7.6977 2.90687 6.81283 3.14107 5.98331C3.37526 5.1538 3.88808 4.43028 4.59321 3.93456C4.77893 3.10203 5.24283 2.35765 5.90842 1.82418C6.57401 1.29071 7.40154 1 8.25454 1C9.10753 1 9.93506 1.29071 10.6006 1.82418C11.2662 2.35765 11.7301 3.10203 11.9159 3.93456C12.621 4.43028 13.1338 5.1538 13.368 5.98331C13.6022 6.81283 13.5435 7.6977 13.2017 8.48899C12.8599 9.28028 12.256 9.92968 11.4916 10.3279C10.7271 10.7261 9.8488 10.8487 9.0045 10.6752Z" fill="#007417"/>
</svg>
