<svg width="17" height="17" viewBox="0 0 17 17" fill="none" xmlns="http://www.w3.org/2000/svg">
<path d="M1 8.5C1 6.51088 1.79018 4.60322 3.1967 3.1967C4.60322 1.79018 6.51088 1 8.5 1C10.4891 1 12.3968 1.79018 13.8033 3.1967C15.2098 4.60322 16 6.51088 16 8.5C16 10.4891 15.2098 12.3968 13.8033 13.8033C12.3968 15.2098 10.4891 16 8.5 16C6.51088 16 4.60322 15.2098 3.1967 13.8033C1.79018 12.3968 1 10.4891 1 8.5ZM5.78038 2.76538C4.93861 3.16569 4.19496 3.74588 3.60192 4.465L4.34846 6.89269L5.50923 7.27923L7.92308 5.44462V4.19385L5.78038 2.76538ZM2.19538 9.23154C2.31077 10.2296 2.65692 11.1585 3.17962 11.9604H5.37654L6.10923 11.2277L5.15962 8.37769L3.97808 7.98423L2.19538 9.23154ZM7.21462 14.7146C8.06265 14.8892 8.93735 14.8892 9.78539 14.7146L10.6969 12.6654L9.99192 11.9615H7.00808L6.30423 12.6654L7.21462 14.7146ZM13.8192 11.9615C14.3371 11.1668 14.6696 10.2657 14.7919 9.325L13.0115 7.98885L11.8404 8.37885L10.8908 11.2288L11.6235 11.9615H13.8192ZM13.3808 4.44654C12.7906 3.73556 12.0527 3.16151 11.2185 2.76423L9.07692 4.19385V5.44462L11.4908 7.27923L12.6492 6.89385L13.3808 4.44654Z" fill="#FF8A00"/>
</svg>
